<svg width="16" height="16" viewBox="0 0 16 16" fill="none" xmlns="http://www.w3.org/2000/svg">
<circle cx="8" cy="8" r="8" fill="#FCB500"/>
<path d="M8.74559 12C8.66559 12 8.59759 11.976 8.54159 11.928C8.49359 11.872 8.46959 11.804 8.46959 11.724V5.004L6.47759 6.54C6.42159 6.588 6.36159 6.612 6.29759 6.612C6.22559 6.612 6.15759 6.572 6.09359 6.492L5.78159 6.096C5.74159 6.04 5.72159 5.984 5.72159 5.928C5.72159 5.832 5.76159 5.756 5.84159 5.7L8.45759 3.684C8.54559 3.628 8.64959 3.6 8.76959 3.6H9.38159C9.46159 3.6 9.52559 3.628 9.57359 3.684C9.62959 3.732 9.65759 3.796 9.65759 3.876V11.724C9.65759 11.804 9.62959 11.872 9.57359 11.928C9.52559 11.976 9.46159 12 9.38159 12H8.74559Z" fill="black"/>
</svg>
